HIERARCHY
ROOT Hips
{
	OFFSET -0.001795 -0.223333 0.028219
	CHANNELS 6 Xposition Yposition Zposition Zrotation Yrotation Xrotation 
	JOINT LeftUpLeg
	{
		OFFSET 0.069520 -0.091406 -0.006815
		CHANNELS 3 Zrotation Yrotation Xrotation
		JOINT LeftLeg
		{
			OFFSET 0.034277 -0.375199 -0.004496
			CHANNELS 3 Zrotation Yrotation Xrotation
			JOINT LeftFoot
			{
				OFFSET -0.013596 -0.397961 -0.043693
				CHANNELS 3 Zrotation Yrotation Xrotation
				JOINT LeftToe
				{
					OFFSET 0.026358 -0.055791 0.119288
					CHANNELS 3 Zrotation Yrotation Xrotation
					End Site
					{
						OFFSET 0.000000 0.000000 0.000000
					}
				}
			}
		}
	}
	JOINT RightUpLeg
	{
		OFFSET -0.067670 -0.090522 -0.004320
		CHANNELS 3 Zrotation Yrotation Xrotation
		JOINT RightLeg
		{
			OFFSET -0.038290 -0.382569 -0.008850
			CHANNELS 3 Zrotation Yrotation Xrotation
			JOINT RightFoot
			{
				OFFSET 0.015774 -0.398415 -0.042312
				CHANNELS 3 Zrotation Yrotation Xrotation
				JOINT RightToe
				{
					OFFSET -0.025372 -0.048144 0.123348
					CHANNELS 3 Zrotation Yrotation Xrotation
					End Site
					{
						OFFSET 0.000000 0.000000 0.000000
					}
				}
			}
		}
	}
	JOINT Spine
	{
		OFFSET -0.002533 0.108963 -0.026696
		CHANNELS 3 Zrotation Yrotation Xrotation
		JOINT Spine1
		{
			OFFSET 0.005487 0.135180 0.001092
			CHANNELS 3 Zrotation Yrotation Xrotation
			JOINT Spine2
			{
				OFFSET 0.001457 0.052922 0.025425
				CHANNELS 3 Zrotation Yrotation Xrotation
				JOINT Neck
				{
					OFFSET -0.002778 0.213870 -0.042857
					CHANNELS 3 Zrotation Yrotation Xrotation
					JOINT Head
					{
						OFFSET 0.005152 0.064970 0.051349
						CHANNELS 3 Zrotation Yrotation Xrotation
						End Site
						{
							OFFSET 0.000000 0.000000 0.000000
						}
					}
				}
				JOINT LeftShoulder
				{
					OFFSET 0.078845 0.121749 -0.034090
					CHANNELS 3 Zrotation Yrotation Xrotation
					JOINT LeftArm
					{
						OFFSET 0.090977 0.030469 -0.008868
						CHANNELS 3 Zrotation Yrotation Xrotation
						JOINT LeftForeArm
						{
							OFFSET 0.259612 -0.012772 -0.027456
							CHANNELS 3 Zrotation Yrotation Xrotation
							JOINT LeftHand
							{
								OFFSET 0.249234 0.008986 -0.001171
								CHANNELS 3 Zrotation Yrotation Xrotation
								End Site
								{
									OFFSET 0.000000 0.000000 0.000000
								}
							}
						}
					}
				}
				JOINT RightShoulder
				{
					OFFSET -0.081759 0.118833 -0.038615
					CHANNELS 3 Zrotation Yrotation Xrotation
					JOINT RightArm
					{
						OFFSET -0.096012 0.032551 -0.009143
						CHANNELS 3 Zrotation Yrotation Xrotation
						JOINT RightForeArm
						{
							OFFSET -0.253742 -0.013329 -0.021401
							CHANNELS 3 Zrotation Yrotation Xrotation
							JOINT RightHand
							{
								OFFSET -0.255298 0.007772 -0.005559
								CHANNELS 3 Zrotation Yrotation Xrotation
								End Site
								{
									OFFSET 0.000000 0.000000 0.000000
								}
							}
						}
					}
				}
			}
		}
	}
}
MOTION
Frames: 10
Frame Time: 0.050000
-0.608582 0.725580 0.406502 -22.399618 -75.734422 16.660540 19.058330 20.514750 -29.091855 31.973294 5.983626 77.222066 2.211297 2.347208 -10.932202 0.000000 0.000000 0.000000 4.895145 14.890078 -38.226278 46.211918 3.061831 77.937897 -9.537509 -44.269455 -21.901541 0.000000 0.000000 0.000000 18.926728 16.599178 71.813878 3.406635 2.696481 -56.721407 -19.908043 -20.977903 30.372780 17.823513 -14.049537 -35.282875 0.000000 0.000000 0.000000 -28.262173 -18.535044 23.399314 -18.835078 -31.586896 -2.291005 47.562257 -38.217413 -14.312289 0.000000 0.000000 0.000000 23.691179 11.262480 -8.510216 41.263374 -2.357707 -3.830052 51.199886 61.961183 25.622729 0.000000 0.000000 0.000000 
-0.637637 0.879894 0.465572 -19.254895 -78.032257 21.100298 13.091118 9.371906 -18.796144 6.947290 17.996434 48.049659 10.300796 14.088451 16.941687 0.000000 0.000000 0.000000 -0.000640 6.890422 -27.758073 13.663081 14.032709 50.168178 -3.266885 -7.876769 1.801533 0.000000 0.000000 0.000000 8.045114 12.797710 50.510554 9.578612 13.425826 -63.109771 -29.857063 -12.486258 38.955600 17.152397 -17.382523 -30.986622 0.000000 0.000000 0.000000 -24.543569 -9.231193 18.906451 -40.863967 -26.148586 -4.044537 100.492152 -66.319680 -51.763059 0.000000 0.000000 0.000000 14.832282 3.211895 -11.544433 46.559023 4.093760 -4.362468 90.155027 48.675650 31.535692 0.000000 0.000000 0.000000 
-0.669313 1.064338 0.530132 -49.631856 -82.488247 54.508646 5.559761 3.131920 -10.150746 5.495749 8.384555 26.424954 -2.663226 -2.793289 43.614029 0.000000 0.000000 0.000000 -1.133436 3.756222 -20.119210 1.572341 5.730962 23.482796 9.027278 -15.021448 39.675154 0.000000 0.000000 0.000000 5.996682 5.021641 32.552344 15.322072 17.918417 -56.031151 -25.334175 -4.373783 37.275000 9.472584 -15.779553 -21.834099 0.000000 0.000000 0.000000 -15.629274 4.509452 5.772290 -71.484119 -8.721506 -2.884885 162.176754 -68.135452 -91.493175 0.000000 0.000000 0.000000 4.048009 -1.057410 -11.158506 54.390514 12.276693 -3.459485 78.880789 39.851121 8.757299 0.000000 0.000000 0.000000 
-0.690860 1.221127 0.582328 -84.015024 -83.010935 89.032945 0.241339 1.458444 -10.373589 9.147818 6.676659 24.339797 -6.037952 -2.958620 50.506301 0.000000 0.000000 0.000000 -4.134978 3.341711 -17.737383 5.162573 3.640037 16.933417 -1.054352 -18.179937 53.958268 0.000000 0.000000 0.000000 8.527968 1.548507 24.885115 11.240714 23.337682 -62.031872 -20.648316 0.363740 49.656978 3.389946 -18.570308 -27.570059 0.000000 0.000000 0.000000 15.387916 38.152238 -49.630609 -129.212717 50.654710 19.248193 105.465836 -50.083809 -20.897720 0.000000 0.000000 0.000000 2.962375 -6.159392 -25.683141 63.784504 6.487295 -2.858457 56.261581 17.389202 -10.521343 0.000000 0.000000 0.000000 
-0.700024 1.345073 0.619479 -30.937234 -83.679440 34.997840 -6.524063 -0.231060 -11.367183 5.392882 5.192733 19.506390 -0.017355 0.943977 53.902966 0.000000 0.000000 0.000000 -3.872449 3.609961 -18.886442 0.235142 6.582969 24.721049 -7.220192 -17.822747 61.302259 0.000000 0.000000 0.000000 8.346682 1.432597 24.950243 -2.663965 25.708592 -78.102869 -3.624353 5.154732 68.534417 8.215392 -19.711512 -47.828275 0.000000 0.000000 0.000000 146.647674 20.941652 -60.155198 133.513878 -21.970926 57.753140 104.029302 41.673634 -12.024591 0.000000 0.000000 0.000000 68.731238 -30.838559 -106.076419 53.331349 17.510447 8.101870 45.890043 -50.806410 -14.491507 0.000000 0.000000 0.000000 
-0.703161 1.424995 0.650123 -3.864063 -70.269898 5.616292 -12.702815 -1.040162 -12.224873 8.029665 0.725409 13.222210 -1.080440 1.303475 53.491538 0.000000 0.000000 0.000000 -4.004242 2.865997 -17.044669 2.968056 5.022305 23.897724 -10.734211 -19.070552 65.590603 0.000000 0.000000 0.000000 9.576422 0.595156 25.481745 1.931659 17.874474 -77.255284 16.837340 15.222373 73.946623 -7.480756 -18.009675 -36.596874 0.000000 0.000000 0.000000 88.658923 65.900360 -43.812714 166.580390 70.141013 -57.911439 -123.653167 -63.135161 147.543706 0.000000 0.000000 0.000000 104.469363 -5.562184 -47.666001 -48.720961 34.989691 -2.720614 51.154229 22.622749 11.073906 0.000000 0.000000 0.000000 
-0.706724 1.477203 0.678233 0.530700 -52.298972 -0.105764 -13.374122 -1.353038 -9.300472 2.735944 -0.158219 4.796301 -1.568795 2.007409 49.850300 0.000000 0.000000 0.000000 -9.075318 2.682049 -16.547074 4.370865 1.635483 15.355385 -5.548991 -18.400915 67.584920 0.000000 0.000000 0.000000 11.297231 -0.329029 27.582362 5.748611 13.438459 -80.645413 19.655531 10.876587 77.180783 -15.892227 11.786920 2.731474 0.000000 0.000000 0.000000 -18.351062 35.011276 -35.182855 -24.155681 5.617066 -19.713080 -134.973623 -23.747818 129.709080 0.000000 0.000000 0.000000 77.945410 -12.435568 -9.517491 -14.698195 -2.603600 8.902398 4.430584 47.183125 4.116015 0.000000 0.000000 0.000000 
-0.712021 1.493973 0.704611 -0.619116 -39.784806 -2.807799 -12.956148 -0.977579 -5.268886 -0.542627 0.327474 4.382284 2.961334 7.761127 48.507256 0.000000 0.000000 0.000000 -12.142871 1.933899 -11.724831 1.946097 0.386044 6.743257 -1.482291 -18.053812 60.632910 0.000000 0.000000 0.000000 15.497742 -1.592143 33.630566 -1.834599 12.544184 -98.643278 14.879235 -5.723041 85.929775 -7.283262 2.245433 -10.340213 0.000000 0.000000 0.000000 -11.200505 20.194993 -12.273482 6.580615 10.333320 2.976753 -169.718639 -58.671207 155.040073 0.000000 0.000000 0.000000 45.097335 -13.037438 -9.349869 19.998735 -8.891501 -10.086298 9.364447 41.803616 7.897980 0.000000 0.000000 0.000000 
-0.719873 1.476851 0.730916 -2.797042 -37.366012 -5.151968 -10.311189 -0.717859 -3.276881 -4.565561 1.934355 10.184512 7.341065 12.185205 46.429208 0.000000 0.000000 0.000000 -13.861583 1.988628 -13.418558 4.179642 0.654060 12.323797 -5.306104 -22.026131 48.739057 0.000000 0.000000 0.000000 18.816015 -2.399363 36.761099 24.473111 14.819738 -84.259203 5.882810 16.406122 81.120842 -0.067118 1.709506 2.380707 0.000000 0.000000 0.000000 -6.841933 15.425028 -11.614053 21.000075 8.123751 8.295736 45.256691 -86.016476 -63.497548 0.000000 0.000000 0.000000 40.224112 -8.508102 3.997115 21.311850 -7.347179 -11.652463 -5.307332 37.801672 0.070954 0.000000 0.000000 0.000000 
-0.728836 1.443463 0.754493 -5.291505 -35.232295 -7.281466 -8.433897 -0.460060 -1.609194 -8.760966 4.857945 17.963214 11.242406 16.728901 35.397811 0.000000 0.000000 0.000000 -17.458281 2.241446 -17.516175 10.525402 0.914358 24.659789 -6.100258 -21.941925 24.815565 0.000000 0.000000 0.000000 22.179499 -3.495600 40.573144 31.454273 14.148200 -82.390949 3.452255 20.399173 78.013740 2.278407 -0.467349 4.878353 0.000000 0.000000 0.000000 1.406010 12.679842 -8.840267 23.495627 2.257589 6.536333 -0.475096 -51.748084 -8.939421 0.000000 0.000000 0.000000 40.873450 -9.940349 3.042916 17.977747 -7.874477 -9.431744 -10.667549 37.893788 -2.848518 0.000000 0.000000 0.000000 
